<svg width="32" height="32" viewBox="0 0 32 32" fill="none" xmlns="http://www.w3.org/2000/svg">
<path d="M29.0671 15.7409L30.5671 15.7417V15.7409H29.0671ZM27.5671 14.5142V15.7409H30.5671V14.5142H27.5671ZM27.5671 15.74C27.5656 18.2918 26.7393 20.7747 25.2114 22.8185L27.6142 24.6148C29.5295 22.0528 30.5652 18.9404 30.5671 15.7417L27.5671 15.74ZM25.2114 22.8185C23.6836 24.8623 21.5359 26.3574 19.0889 27.081L19.9395 29.9578C23.0069 29.0509 25.699 27.1767 27.6142 24.6148L25.2114 22.8185ZM19.0889 27.081C16.6419 27.8045 14.0265 27.7176 11.6328 26.8333L10.5932 29.6474C13.5937 30.7559 16.8721 30.8648 19.9395 29.9578L19.0889 27.081ZM11.6328 26.8333C9.23921 25.9489 7.19557 24.3146 5.80669 22.1739L3.28998 23.8067C5.03096 26.4901 7.59272 28.5388 10.5932 29.6474L11.6328 26.8333ZM5.80669 22.1739C4.41782 20.0332 3.75814 17.5009 3.92604 14.9546L0.932543 14.7573C0.72208 17.949 1.549 21.1233 3.28998 23.8067L5.80669 22.1739ZM3.92604 14.9546C4.09394 12.4084 5.08042 9.98466 6.73836 8.04488L4.45784 6.09572C2.37958 8.52727 1.14301 11.5655 0.932543 14.7573L3.92604 14.9546ZM6.73836 8.04488C8.39629 6.1051 10.6369 4.75321 13.1259 4.19085L12.4647 1.26461C9.34469 1.96954 6.5361 3.66416 4.45784 6.09572L6.73836 8.04488ZM13.1259 4.19085C15.6149 3.62849 18.219 3.88578 20.5499 4.92434L21.7709 2.18406C18.8491 0.882191 15.5848 0.559675 12.4647 1.26461L13.1259 4.19085Z" fill="#04D361"/>
<path d="M15.7334 18.4209L14.6727 19.4815C14.9541 19.7629 15.3358 19.921 15.7338 19.9209C16.1317 19.9208 16.5133 19.7626 16.7946 19.481L15.7334 18.4209ZM28.0055 4.01409L14.6722 17.3608L16.7946 19.481L30.1279 6.13435L28.0055 4.01409ZM16.7941 17.3602L12.7941 13.3602L10.6727 15.4815L14.6727 19.4815L16.7941 17.3602Z" fill="#04D361"/>
</svg>
