<svg width="25" height="24" viewBox="0 0 25 24" fill="none" xmlns="http://www.w3.org/2000/svg">
<path d="M12.5 2C10.5222 2 8.58879 2.58649 6.9443 3.6853C5.29981 4.78412 4.01809 6.3459 3.26121 8.17317C2.50433 10.0004 2.3063 12.0111 2.69215 13.9509C3.078 15.8907 4.03041 17.6725 5.42894 19.0711C6.82746 20.4696 8.60929 21.422 10.5491 21.8079C12.4889 22.1937 14.4996 21.9957 16.3268 21.2388C18.1541 20.4819 19.7159 19.2002 20.8147 17.5557C21.9135 15.9112 22.5 13.9778 22.5 12C22.5 10.6868 22.2413 9.38642 21.7388 8.17317C21.2363 6.95991 20.4997 5.85752 19.5711 4.92893C18.6425 4.00035 17.5401 3.26375 16.3268 2.7612C15.1136 2.25866 13.8132 2 12.5 2ZM16.19 13.86L13.19 16.72C13.1466 16.7623 13.0958 16.7962 13.04 16.82C12.993 16.8625 12.9388 16.8963 12.88 16.92C12.7603 16.9729 12.6309 17.0002 12.5 17.0002C12.3691 17.0002 12.2397 16.9729 12.12 16.92C11.9973 16.8724 11.8851 16.801 11.79 16.71L8.79 13.71C8.6017 13.5217 8.49591 13.2663 8.49591 13C8.49591 12.7337 8.6017 12.4783 8.79 12.29C8.97831 12.1017 9.2337 11.9959 9.5 11.9959C9.76631 11.9959 10.0217 12.1017 10.21 12.29L11.5 13.59V8C11.5 7.73478 11.6054 7.48043 11.7929 7.29289C11.9804 7.10536 12.2348 7 12.5 7C12.7652 7 13.0196 7.10536 13.2071 7.29289C13.3946 7.48043 13.5 7.73478 13.5 8V13.66L14.81 12.41C15.0023 12.227 15.2594 12.1279 15.5248 12.1344C15.7901 12.141 16.042 12.2527 16.225 12.445C16.408 12.6373 16.5071 12.8944 16.5006 13.1597C16.494 13.4251 16.3823 13.677 16.19 13.86Z" fill="#F57D58"/>
</svg>
