<svg width="24" height="24" viewBox="0 0 24 24" fill="none" xmlns="http://www.w3.org/2000/svg">
<path d="M17 3.50005C17 3.36745 16.9473 3.24027 16.8536 3.1465C16.7598 3.05273 16.6326 3.00005 16.5 3.00005H14C12.7411 2.93734 11.5086 3.37544 10.5717 4.21863C9.63485 5.06182 9.06978 6.24155 9 7.50005V10.2001H6.5C6.36739 10.2001 6.24021 10.2527 6.14645 10.3465C6.05268 10.4403 6 10.5674 6 10.7001V13.3001C6 13.4327 6.05268 13.5598 6.14645 13.6536C6.24021 13.7474 6.36739 13.8001 6.5 13.8001H9V20.5001C9 20.6327 9.05268 20.7598 9.14645 20.8536C9.24021 20.9474 9.36739 21.0001 9.5 21.0001H12.5C12.6326 21.0001 12.7598 20.9474 12.8536 20.8536C12.9473 20.7598 13 20.6327 13 20.5001V13.8001H15.62C15.7312 13.8017 15.8397 13.7661 15.9285 13.6991C16.0172 13.6321 16.0811 13.5374 16.11 13.4301L16.83 10.8301C16.8499 10.7562 16.8526 10.6787 16.8378 10.6036C16.8231 10.5286 16.7913 10.4579 16.7449 10.397C16.6985 10.3362 16.6388 10.2868 16.5704 10.2526C16.5019 10.2185 16.4265 10.2005 16.35 10.2001H13V7.50005C13.0249 7.25253 13.1411 7.02317 13.326 6.85675C13.5109 6.69033 13.7512 6.59881 14 6.60005H16.5C16.6326 6.60005 16.7598 6.54737 16.8536 6.45361C16.9473 6.35984 17 6.23266 17 6.10005V3.50005Z" fill="black"/>
</svg>
