<svg width="25" height="24" viewBox="0 0 25 24" fill="none" xmlns="http://www.w3.org/2000/svg">
<path d="M12.2928 0C19.0845 0 24.5854 5.50948 24.5854 12.3045C24.5854 17.742 21.0636 22.3531 16.1803 23.9788C15.5657 24.0946 15.3403 23.7137 15.3403 23.3871C15.3403 23.095 15.3506 22.3207 15.3557 21.295C18.7751 22.0369 19.4963 19.6442 19.4963 19.6442C20.0556 18.2241 20.8638 17.8443 20.8638 17.8443C21.9774 17.0815 20.7778 17.0971 20.7778 17.0971C19.5434 17.1827 18.895 18.3649 18.895 18.3649C17.7989 20.2463 16.0174 19.7027 15.3147 19.3886C15.2041 18.5924 14.8875 18.0509 14.5362 17.743C17.2662 17.4352 20.1355 16.3771 20.1355 11.6628C20.1355 10.3198 19.6592 9.22212 18.8704 8.36127C19.0087 8.05031 19.4235 6.7992 18.7628 5.10462C18.7628 5.10462 17.7333 4.77489 15.3823 6.36617C14.3989 6.09278 13.354 5.95713 12.3092 5.95087C11.2643 5.95713 10.2194 6.09278 9.23599 6.36617C6.90038 4.77489 5.87086 5.10462 5.87086 5.10462C5.21013 6.7992 5.62501 8.05031 5.74794 8.36127C4.96428 9.22212 4.48794 10.3198 4.48794 11.6628C4.48794 16.3897 7.36135 17.43 10.0965 17.7326C9.66623 18.102 9.26672 18.8564 9.26672 20.0094C9.26672 21.656 9.28208 22.9791 9.28208 23.3788C9.28208 23.7012 9.06696 24.0863 8.43696 23.9631C3.51886 22.3478 8.2016e-05 17.7337 8.2016e-05 12.3045C8.2016e-05 5.50948 5.50413 0 12.2928 0Z" fill="black"/>
</svg>
