<svg width="24" height="24" viewBox="0 0 24 24" fill="none" xmlns="http://www.w3.org/2000/svg">
<path d="M15.1498 8.39994C14.3834 8.39731 13.6239 8.54583 12.9149 8.83701C12.2059 9.12819 11.5613 9.55632 11.018 10.0969C10.4746 10.6375 10.0432 11.2799 9.74837 11.9873C9.45354 12.6948 9.30111 13.4535 9.2998 14.2199V20.0999C9.2998 20.3386 9.39463 20.5676 9.56341 20.7363C9.73219 20.9051 9.96111 20.9999 10.1998 20.9999H12.2998C12.5385 20.9999 12.7674 20.9051 12.9362 20.7363C13.105 20.5676 13.1998 20.3386 13.1998 20.0999V14.2199C13.1996 13.9473 13.2569 13.6778 13.3678 13.4288C13.4788 13.1798 13.641 12.957 13.8439 12.7749C14.0467 12.5928 14.2857 12.4555 14.5452 12.3719C14.8046 12.2884 15.0788 12.2604 15.3498 12.2899C15.8358 12.3512 16.2825 12.5886 16.605 12.9572C16.9276 13.3259 17.1036 13.8001 17.0998 14.2899V20.0999C17.0998 20.3386 17.1946 20.5676 17.3634 20.7363C17.5322 20.9051 17.7611 20.9999 17.9998 20.9999H20.0998C20.3385 20.9999 20.5674 20.9051 20.7362 20.7363C20.905 20.5676 20.9998 20.3386 20.9998 20.0999V14.2199C20.9985 13.4535 20.8461 12.6948 20.5512 11.9873C20.2564 11.2799 19.825 10.6375 19.2816 10.0969C18.7383 9.55632 18.0937 9.12819 17.3847 8.83701C16.6757 8.54583 15.9163 8.39731 15.1498 8.39994Z" fill="black"/>
<path d="M6.6 9.2998H3.9C3.40294 9.2998 3 9.70275 3 10.1998V20.0998C3 20.5969 3.40294 20.9998 3.9 20.9998H6.6C7.09706 20.9998 7.5 20.5969 7.5 20.0998V10.1998C7.5 9.70275 7.09706 9.2998 6.6 9.2998Z" fill="black"/>
<path d="M5.25 7.5C6.49264 7.5 7.5 6.49264 7.5 5.25C7.5 4.00736 6.49264 3 5.25 3C4.00736 3 3 4.00736 3 5.25C3 6.49264 4.00736 7.5 5.25 7.5Z" fill="black"/>
</svg>
