<svg width="24" height="24" viewBox="0 0 24 24" fill="none" xmlns="http://www.w3.org/2000/svg">
<path d="M8.08029 19.9998C9.55898 20.0493 11.0326 19.8018 12.414 19.2721C13.7955 18.7424 15.0567 17.9411 16.1232 16.9156C17.1897 15.8901 18.0398 14.6613 18.6233 13.3017C19.2067 11.9421 19.5118 10.4793 19.5203 8.9998C20.1979 8.16121 20.7011 7.19563 21.0003 6.1598C21.0226 6.07796 21.0208 5.99141 20.9951 5.91057C20.9694 5.82974 20.9208 5.75806 20.8553 5.70417C20.7898 5.65027 20.7101 5.61647 20.6258 5.60683C20.5416 5.59718 20.4563 5.6121 20.3803 5.6498C20.0258 5.82045 19.6266 5.87558 19.2391 5.80741C18.8516 5.73923 18.4953 5.5512 18.2203 5.2698C17.8692 4.88538 17.4446 4.57533 16.9715 4.35803C16.4985 4.14072 15.9866 4.02059 15.4662 4.00473C14.9459 3.98888 14.4276 4.07763 13.9422 4.26574C13.4568 4.45384 13.0141 4.73746 12.6403 5.0998C12.1285 5.59546 11.7536 6.21509 11.5521 6.89847C11.3506 7.58186 11.3293 8.30575 11.4903 8.9998C8.14029 9.1998 5.84029 7.6098 4.00029 5.4298C3.94501 5.3672 3.8727 5.32205 3.79219 5.29987C3.71168 5.27769 3.62645 5.27943 3.54691 5.30488C3.46737 5.33033 3.39697 5.37839 3.34429 5.4432C3.29162 5.508 3.25895 5.58674 3.25029 5.6698C2.89976 7.61422 3.15261 9.61935 3.9749 11.4159C4.79719 13.2124 6.14953 14.7143 7.85029 15.7198C6.70992 17.0276 5.10849 17.8445 3.38029 17.9998C3.2877 18.0152 3.20223 18.0591 3.13584 18.1254C3.06945 18.1917 3.02546 18.2772 3.01003 18.3698C2.9946 18.4623 3.0085 18.5574 3.04979 18.6417C3.09108 18.726 3.15768 18.7952 3.24029 18.8398C4.74381 19.5912 6.39952 19.988 8.08029 19.9998Z" fill="black"/>
</svg>
