<svg width="24" height="24" viewBox="0 0 24 24" fill="none" xmlns="http://www.w3.org/2000/svg">
<path d="M12 0.5C5.7 0.5 0.5 5.7 0.5 12C0.5 14.4 1.2 16.6 2.5 18.5L1.2 22.4C1.1 22.6 1.2 22.8 1.3 22.9C1.5 23 1.7 23.1 1.9 23L5.9 21.7C7.7 22.9 9.9 23.5 12 23.5C18.3 23.5 23.5 18.3 23.5 12C23.5 5.7 18.3 0.5 12 0.5ZM18.9 16.7C18.6 17.6 17.4 18.4 16.4 18.6C16.2 18.6 16 18.7 15.7 18.7C14.9 18.7 13.9 18.4 12.3 17.8C10.3 17 8.3 15.2 6.7 12.9L6.6 12.8C6 12 5.1 10.6 5.1 9.1C5.1 7.4 6 6.5 6.3 6.1C6.7 5.7 7.2 5.5 7.8 5.5C7.9 5.5 8 5.5 8.1 5.5H8.2C8.7 5.5 9 5.7 9.3 6.3L9.5 6.7C9.8 7.4 10.2 8.5 10.3 8.7C10.5 9.1 10.5 9.4 10.3 9.7C10.2 9.9 10.1 10.1 9.9 10.3C9.8 10.4 9.7 10.5 9.7 10.6C9.6 10.7 9.5 10.8 9.4 10.9C9.4 11 9.4 11 9.4 11C9.7 11.5 10.3 12.4 11.1 13.1C12.2 14.1 13 14.4 13.4 14.6H13.5C13.6 14.6 13.7 14.7 13.7 14.6C13.9 14.4 14.1 14 14.4 13.7L14.5 13.6C14.8 13.2 15.2 13.1 15.4 13.1C15.5 13.1 15.7 13.1 15.8 13.2C15.9 13.2 16.1 13.3 18 14.3L18.2 14.4C18.5 14.5 18.7 14.6 18.8 14.9C19.2 15.1 19.1 16 18.9 16.7Z" fill="black"/>
</svg>
