<svg width="32" height="32" viewBox="0 0 32 32" fill="none" xmlns="http://www.w3.org/2000/svg">
<mask id="mask0_1_3" style="mask-type:alpha" maskUnits="userSpaceOnUse" x="0" y="0" width="32" height="32">
<path d="M23.329 7.42382C24.9034 7.42382 26.1848 6.149 26.1848 4.56741C26.1848 2.98582 24.9103 1.711 23.329 1.711C21.7477 1.711 20.4732 2.98582 20.4732 4.56741C20.4732 6.149 21.7477 7.42382 23.329 7.42382Z" fill="#F45C2D"/>
<path d="M30.2756 8.77369C29.7644 7.77156 28.5376 7.37616 27.5425 7.88745C26.5406 8.39874 26.1453 9.62584 26.6564 10.6212C27.5084 12.2846 27.9378 14.0979 27.9378 15.9999C27.9378 22.5786 22.5806 27.9301 16.0034 27.9301C9.4262 27.9301 4.06901 22.5786 4.06901 15.9999C4.06901 9.42133 9.41938 4.06981 15.9966 4.06981C17.1212 4.06981 18.0277 3.1563 18.0277 2.03828C18.0277 0.920258 17.1144 0.00675114 15.9966 0.00675114C7.177 -6.60719e-05 0 7.17846 0 15.9999C0 24.8214 7.177 31.9999 15.9966 31.9999C24.8162 31.9999 32 24.8214 32 15.9999C32 13.4435 31.4207 11.0166 30.2756 8.76687V8.77369Z" fill="#F45C2D"/>
</mask>
<g mask="url(#mask0_1_3)">
<rect x="-1.53267" y="-1.53463" width="35.6726" height="34.9865" fill="url(#paint0_radial_1_3)"/>
</g>
<defs>
<radialGradient id="paint0_radial_1_3" cx="0" cy="0" r="1" gradientUnits="userSpaceOnUse" gradientTransform="translate(10.4725 3.26745) rotate(3.01279) scale(13.0522 15.7956)">
<stop stop-color="#42D3FF"/>
<stop offset="0.356564" stop-color="#48CEF7"/>
<stop offset="1" stop-color="#F45C2D"/>
</radialGradient>
</defs>
</svg>
