<svg width="223" height="62" viewBox="0 0 223 62" fill="none" xmlns="http://www.w3.org/2000/svg">
<g clip-path="url(#clip0_29_949)">
<path d="M76.7573 9.48828H82.4025L86.2892 18.7581H86.4867L90.3734 9.48828H96.0186V25.8526H91.5776V16.3891H91.4438L87.7228 25.7213H85.0468L81.3257 16.3265H81.1919V25.8526H76.7573V9.48828Z" fill="white"/>
<path d="M103.663 25.8526H98.7632L104.281 9.48828H110.481L115.998 25.8526H111.099L107.441 13.995H107.307L103.65 25.8526H103.663ZM102.752 19.3956H111.959V22.721H102.752V19.3956Z" fill="white"/>
<path d="M118.753 25.8526V9.48828H125.966C127.208 9.48828 128.291 9.70706 129.221 10.1509C130.152 10.5947 130.878 11.2322 131.394 12.0636C131.91 12.8949 132.171 13.8888 132.171 15.0514C132.171 16.214 131.904 17.2141 131.375 18.0142C130.846 18.8206 130.101 19.4269 129.145 19.8394C128.189 20.252 127.074 20.452 125.8 20.452H121.493V17.0016H124.889C125.424 17.0016 125.876 16.9391 126.259 16.8078C126.635 16.6766 126.928 16.4703 127.132 16.1828C127.335 15.8952 127.437 15.5202 127.437 15.0577C127.437 14.5951 127.335 14.2076 127.132 13.9138C126.928 13.62 126.635 13.4012 126.259 13.2575C125.883 13.1137 125.424 13.0449 124.889 13.0449H123.289V25.8526H118.753V25.8526ZM128.546 18.3393L132.726 25.8526H127.794L123.716 18.3393H128.546Z" fill="white"/>
<path d="M139.587 25.8516H134.688L140.205 9.4873H146.405L151.923 25.8516H147.023L143.366 13.9941H143.232L139.574 25.8516H139.587ZM138.676 19.3947H147.883V22.72H138.676V19.3947Z" fill="white"/>
<path d="M152.092 13.069V9.4873H166.619V13.069H161.592V25.8516H157.119V13.069H152.092V13.069Z" fill="white"/>
<path d="M184.877 17.67C184.877 19.4952 184.514 21.0266 183.794 22.2767C183.067 23.5269 182.093 24.4707 180.863 25.1146C179.633 25.7584 178.263 26.0772 176.747 26.0772C175.23 26.0772 173.848 25.7521 172.624 25.1083C171.401 24.4645 170.426 23.5144 169.7 22.2642C168.98 21.0141 168.617 19.4827 168.617 17.6762C168.617 15.8698 168.98 14.3196 169.7 13.0695C170.42 11.8193 171.395 10.8755 172.624 10.2317C173.854 9.58783 175.224 9.26904 176.747 9.26904C178.27 9.26904 179.633 9.58783 180.863 10.2317C182.093 10.8755 183.067 11.8193 183.794 13.0695C184.52 14.3196 184.877 15.8573 184.877 17.6762V17.67ZM180.207 17.67C180.207 16.6886 180.073 15.8635 179.812 15.1885C179.55 14.5134 179.162 14.0008 178.646 13.657C178.129 13.307 177.499 13.132 176.747 13.132C175.995 13.132 175.364 13.307 174.848 13.657C174.332 14.0071 173.943 14.5196 173.682 15.1885C173.421 15.8573 173.287 16.6886 173.287 17.67C173.287 18.6513 173.421 19.4764 173.682 20.1515C173.943 20.8266 174.332 21.3391 174.848 21.6829C175.364 22.033 175.995 22.208 176.747 22.208C177.499 22.208 178.129 22.033 178.646 21.6829C179.162 21.3329 179.55 20.8203 179.812 20.1515C180.073 19.4827 180.207 18.6513 180.207 17.67V17.67Z" fill="white"/>
<path d="M202.578 9.48828V25.8526H198.793L192.753 17.2516H192.658V25.8526H188.121V9.48828H191.976L197.921 18.0517H198.048V9.48828H202.585H202.578Z" fill="white"/>
<path d="M210.223 25.8526H205.324L210.842 9.48828H217.041L222.559 25.8526H217.659L214.002 13.995H213.868L210.211 25.8526H210.223ZM209.312 19.3956H218.519V22.721H209.312V19.3956Z" fill="white"/>
<path d="M77.4897 52.6954V34.6934H89.4237V37.4249H80.8157V42.313H88.8057V45.0445H80.8157V49.9576H89.4938V52.6891H77.4897V52.6954Z" fill="white"/>
<path d="M98.123 34.6934L102.163 41.2816H102.303L106.361 34.6934H110.153L104.501 43.6944L110.242 52.6954H106.387L102.303 46.1446H102.163L98.0784 52.6954H94.2427L100.041 43.6944L94.3191 34.6934H98.1293H98.123Z" fill="white"/>
<path d="M115.276 52.6949V34.6929H122.158C123.566 34.6929 124.751 34.9491 125.713 35.468C126.669 35.9805 127.395 36.6931 127.892 37.5932C128.383 38.4933 128.631 39.5122 128.631 40.656C128.631 41.7999 128.383 42.8375 127.886 43.7314C127.389 44.6252 126.656 45.3316 125.694 45.8441C124.732 46.3567 123.534 46.613 122.119 46.613H117.557V43.9314H121.667C122.489 43.9314 123.164 43.7939 123.693 43.5126C124.222 43.2313 124.611 42.8438 124.859 42.35C125.114 41.8562 125.242 41.2936 125.242 40.656C125.242 40.0185 125.114 39.4559 124.859 38.9683C124.604 38.4808 124.216 38.1058 123.687 37.8307C123.158 37.5557 122.476 37.4244 121.648 37.4244H118.602V52.7011H115.276V52.6949Z" fill="white"/>
<path d="M134.038 52.6954V34.6934H137.364V49.9576H145.443V52.6891H134.038V52.6954Z" fill="white"/>
<path d="M166.519 43.6931C166.519 45.6308 166.15 47.2935 165.411 48.6749C164.672 50.0563 163.671 51.1127 162.403 51.844C161.135 52.5754 159.695 52.9442 158.09 52.9442C156.484 52.9442 155.044 52.5754 153.776 51.844C152.508 51.1065 151.502 50.0501 150.769 48.6687C150.03 47.2873 149.66 45.6308 149.66 43.6994C149.66 41.7679 150.03 40.099 150.769 38.7238C151.508 37.3424 152.508 36.286 153.776 35.5547C155.044 34.8234 156.484 34.4546 158.09 34.4546C159.695 34.4546 161.135 34.8234 162.403 35.5547C163.671 36.286 164.678 37.3424 165.411 38.7238C166.15 40.1052 166.519 41.7617 166.519 43.6994V43.6931ZM163.181 43.6931C163.181 42.3305 162.964 41.1741 162.531 40.2365C162.097 39.2989 161.499 38.5863 160.734 38.0987C159.969 37.6174 159.09 37.3737 158.09 37.3737C157.089 37.3737 156.21 37.6174 155.446 38.0987C154.681 38.5801 154.082 39.2926 153.649 40.2365C153.215 41.1741 152.999 42.3305 152.999 43.6931C152.999 45.0558 153.215 46.2122 153.649 47.1498C154.082 48.0874 154.681 48.7999 155.446 49.2875C156.21 49.7688 157.089 50.0126 158.09 50.0126C159.09 50.0126 159.969 49.7688 160.734 49.2875C161.499 48.8062 162.097 48.0936 162.531 47.1498C162.964 46.2059 163.181 45.0558 163.181 43.6931Z" fill="white"/>
<path d="M172.191 52.6949V34.6929H179.072C180.48 34.6929 181.665 34.9304 182.628 35.4117C183.583 35.893 184.31 36.5618 184.807 37.4307C185.297 38.2933 185.546 39.2996 185.546 40.4498C185.546 41.5999 185.297 42.6063 184.8 43.4501C184.303 44.3002 183.571 44.9503 182.602 45.4128C181.634 45.8754 180.448 46.1004 179.034 46.1004H174.134V43.3938H178.588C179.41 43.3938 180.085 43.2813 180.614 43.0563C181.143 42.8313 181.532 42.5 181.78 42.0624C182.029 41.6249 182.162 41.0873 182.162 40.4498C182.162 39.8122 182.035 39.2621 181.78 38.8121C181.525 38.3558 181.13 38.012 180.608 37.7745C180.079 37.5369 179.404 37.4182 178.575 37.4182H175.53V52.6949H172.204H172.191ZM181.672 44.5377L186.215 52.6949H182.507L178.046 44.5377H181.672Z" fill="white"/>
<path d="M191.129 52.6954V34.6934H203.063V37.4249H194.455V42.313H202.445V45.0445H194.455V49.9576H203.133V52.6891H191.129V52.6954Z" fill="white"/>
<path d="M208.98 52.6949V34.6929H215.862C217.27 34.6929 218.455 34.9304 219.417 35.4117C220.373 35.893 221.099 36.5618 221.596 37.4307C222.087 38.2933 222.335 39.2996 222.335 40.4498C222.335 41.5999 222.087 42.6063 221.59 43.4501C221.093 44.3002 220.36 44.9503 219.392 45.4128C218.423 45.8754 217.238 46.1004 215.824 46.1004H210.924V43.3938H215.378C216.199 43.3938 216.875 43.2813 217.404 43.0563C217.933 42.8313 218.321 42.5 218.57 42.0624C218.818 41.6249 218.952 41.0873 218.952 40.4498C218.952 39.8122 218.825 39.2621 218.57 38.8121C218.315 38.3558 217.92 38.012 217.397 37.7745C216.868 37.5369 216.193 37.4182 215.365 37.4182H212.319V52.6949H208.993H208.98ZM218.461 44.5377L223.004 52.6949H219.296L214.836 44.5377H218.461Z" fill="white"/>
</g>
<mask id="mask0_29_949" style="mask-type:alpha" maskUnits="userSpaceOnUse" x="0" y="0" width="62" height="62">
<g clip-path="url(#clip1_29_949)">
<path d="M44.8646 14.277C47.8925 14.277 50.3567 11.8254 50.3567 8.78377C50.3567 5.74217 47.9056 3.29053 44.8646 3.29053C41.8237 3.29053 39.3726 5.74217 39.3726 8.78377C39.3726 11.8254 41.8237 14.277 44.8646 14.277Z" fill="#F45C2D"/>
<path d="M58.2239 16.8731C57.2408 14.9459 54.8814 14.1855 52.9677 15.1688C51.0409 16.1521 50.2807 18.5119 51.2638 20.4261C52.9022 23.625 53.728 27.1123 53.728 30.7701C53.728 43.4217 43.4254 53.7133 30.7766 53.7133C18.1278 53.7133 7.82523 43.4217 7.82523 30.7701C7.82523 18.1186 18.1147 7.82698 30.7635 7.82698C32.9262 7.82698 34.6696 6.07019 34.6696 3.92009C34.6696 1.76998 32.9131 0.0131929 30.7635 0.0131929C13.8023 8.25452e-05 0 13.8053 0 30.7701C0 47.735 13.8023 61.5402 30.7635 61.5402C47.7247 61.5402 61.5401 47.735 61.5401 30.7701C61.5401 25.8537 60.426 21.1865 58.2239 16.86V16.8731Z" fill="#F45C2D"/>
</g>
</mask>
<g mask="url(#mask0_29_949)">
<rect x="-2.94775" y="-2.95117" width="68.6029" height="67.2836" fill="url(#paint0_radial_29_949)"/>
</g>
<defs>
<radialGradient id="paint0_radial_29_949" cx="0" cy="0" r="1" gradientUnits="userSpaceOnUse" gradientTransform="translate(20.1398 6.28383) rotate(3.01279) scale(25.1011 30.3769)">
<stop stop-color="#42D3FF"/>
<stop offset="0.356564" stop-color="#48CEF7"/>
<stop offset="1" stop-color="#F45C2D"/>
</radialGradient>
<clipPath id="clip0_29_949">
<rect width="146.24" height="43.6736" fill="white" transform="translate(76.7598 9.26514)"/>
</clipPath>
<clipPath id="clip1_29_949">
<rect width="61.5401" height="61.5401" fill="white"/>
</clipPath>
</defs>
</svg>
